<mxfile host="65bd71144e">
    <diagram id="bF10ZBh5aATIML1a_t0V" name="ページ1">
        <mxGraphModel dx="746" dy="539" grid="1" gridSize="10" guides="1" tooltips="1" connect="1" arrows="1" fold="1" page="1" pageScale="1" pageWidth="827" pageHeight="1169" math="0" shadow="0">
            <root>
                <mxCell id="0"/>
                <mxCell id="1" parent="0"/>
                <mxCell id="2" value="&lt;font style=&quot;font-size: 9px;&quot;&gt;リバーシ&lt;br style=&quot;font-size: 9px;&quot;&gt;アプリケーション&lt;/font&gt;" style="rounded=0;whiteSpace=wrap;html=1;verticalAlign=top;fontSize=9;strokeColor=default;fillColor=none;" vertex="1" parent="1">
                    <mxGeometry x="240" y="190" width="290" height="350" as="geometry"/>
                </mxCell>
                <mxCell id="3" value="プレイヤー" style="shape=umlActor;verticalLabelPosition=bottom;verticalAlign=top;html=1;fontSize=9;" vertex="1" parent="1">
                    <mxGeometry x="140" y="250" width="20" height="40" as="geometry"/>
                </mxCell>
                <mxCell id="6" value="対戦する" style="ellipse;whiteSpace=wrap;html=1;fontSize=9;" vertex="1" parent="1">
                    <mxGeometry x="260" y="260" width="80" height="40" as="geometry"/>
                </mxCell>
                <mxCell id="7" value="" style="endArrow=none;html=1;fontSize=9;entryX=0;entryY=0.5;entryDx=0;entryDy=0;" edge="1" parent="1" target="6">
                    <mxGeometry width="50" height="50" relative="1" as="geometry">
                        <mxPoint x="160" y="260" as="sourcePoint"/>
                        <mxPoint x="210" y="210" as="targetPoint"/>
                    </mxGeometry>
                </mxCell>
                <mxCell id="8" value="・対戦を開始する&lt;br style=&quot;font-size: 6px;&quot;&gt;・盤面を見る&lt;br style=&quot;font-size: 6px;&quot;&gt;・石を打つ&lt;br style=&quot;font-size: 6px;&quot;&gt;・勝敗を確認する" style="shape=note;whiteSpace=wrap;html=1;backgroundOutline=1;darkOpacity=0.05;fontSize=6;align=left;fillColor=#a0522d;strokeColor=#6D1F00;fontColor=#ffffff;size=16;" vertex="1" parent="1">
                    <mxGeometry x="430" y="195" width="80" height="50" as="geometry"/>
                </mxCell>
                <mxCell id="10" value="" style="endArrow=none;dashed=1;html=1;fontSize=6;entryX=0;entryY=0.5;entryDx=0;entryDy=0;entryPerimeter=0;exitX=1;exitY=0.5;exitDx=0;exitDy=0;" edge="1" parent="1" source="6" target="8">
                    <mxGeometry width="50" height="50" relative="1" as="geometry">
                        <mxPoint x="340" y="310" as="sourcePoint"/>
                        <mxPoint x="390" y="260" as="targetPoint"/>
                    </mxGeometry>
                </mxCell>
                <mxCell id="11" value="自分の過去の対戦結果を確認する" style="ellipse;whiteSpace=wrap;html=1;fontSize=8;" vertex="1" parent="1">
                    <mxGeometry x="260" y="320" width="80" height="40" as="geometry"/>
                </mxCell>
                <mxCell id="12" value="" style="endArrow=none;html=1;fontSize=9;entryX=0;entryY=0.5;entryDx=0;entryDy=0;" edge="1" parent="1" target="11">
                    <mxGeometry width="50" height="50" relative="1" as="geometry">
                        <mxPoint x="170" y="290" as="sourcePoint"/>
                        <mxPoint x="270" y="300" as="targetPoint"/>
                    </mxGeometry>
                </mxCell>
                <mxCell id="13" value="プレイヤーのランキングを確認する" style="ellipse;whiteSpace=wrap;html=1;fontSize=8;" vertex="1" parent="1">
                    <mxGeometry x="260" y="420" width="80" height="40" as="geometry"/>
                </mxCell>
                <mxCell id="14" value="他のプレイヤーと対戦する" style="ellipse;whiteSpace=wrap;html=1;fontSize=8;" vertex="1" parent="1">
                    <mxGeometry x="400" y="470" width="80" height="40" as="geometry"/>
                </mxCell>
                <mxCell id="15" value="コンピュータと対戦する" style="ellipse;whiteSpace=wrap;html=1;fontSize=8;" vertex="1" parent="1">
                    <mxGeometry x="420" y="410" width="80" height="40" as="geometry"/>
                </mxCell>
                <mxCell id="16" value="一人で黒白交互に打つ" style="ellipse;whiteSpace=wrap;html=1;fontSize=8;" vertex="1" parent="1">
                    <mxGeometry x="420" y="330" width="80" height="40" as="geometry"/>
                </mxCell>
                <mxCell id="17" value="" style="endArrow=classic;html=1;fontSize=8;entryX=1;entryY=1;entryDx=0;entryDy=0;exitX=0.089;exitY=0.212;exitDx=0;exitDy=0;exitPerimeter=0;" edge="1" parent="1" source="14" target="11">
                    <mxGeometry relative="1" as="geometry">
                        <mxPoint x="300" y="390" as="sourcePoint"/>
                        <mxPoint x="400" y="390" as="targetPoint"/>
                    </mxGeometry>
                </mxCell>
                <mxCell id="18" value="Extends" style="edgeLabel;resizable=0;html=1;align=center;verticalAlign=middle;strokeColor=default;fontSize=8;fillColor=none;" connectable="0" vertex="1" parent="17">
                    <mxGeometry relative="1" as="geometry"/>
                </mxCell>
                <mxCell id="19" value="" style="endArrow=classic;html=1;fontSize=8;entryX=0.964;entryY=0.759;entryDx=0;entryDy=0;exitX=0;exitY=0.5;exitDx=0;exitDy=0;entryPerimeter=0;" edge="1" parent="1" source="15" target="11">
                    <mxGeometry relative="1" as="geometry">
                        <mxPoint x="417.1200000000001" y="488.48" as="sourcePoint"/>
                        <mxPoint x="338.2842712474619" y="364.14213562373095" as="targetPoint"/>
                    </mxGeometry>
                </mxCell>
                <mxCell id="20" value="Extends" style="edgeLabel;resizable=0;html=1;align=center;verticalAlign=middle;strokeColor=default;fontSize=8;fillColor=none;" connectable="0" vertex="1" parent="19">
                    <mxGeometry relative="1" as="geometry"/>
                </mxCell>
                <mxCell id="21" value="" style="endArrow=classic;html=1;fontSize=8;entryX=1;entryY=0.5;entryDx=0;entryDy=0;exitX=0;exitY=0.5;exitDx=0;exitDy=0;" edge="1" parent="1" source="16" target="11">
                    <mxGeometry relative="1" as="geometry">
                        <mxPoint x="427.1200000000001" y="498.48" as="sourcePoint"/>
                        <mxPoint x="348.2842712474619" y="374.14213562373095" as="targetPoint"/>
                    </mxGeometry>
                </mxCell>
                <mxCell id="22" value="Extends" style="edgeLabel;resizable=0;html=1;align=center;verticalAlign=middle;strokeColor=default;fontSize=8;fillColor=none;" connectable="0" vertex="1" parent="21">
                    <mxGeometry relative="1" as="geometry"/>
                </mxCell>
                <mxCell id="23" value="" style="rounded=0;whiteSpace=wrap;html=1;strokeColor=#B20000;fontSize=8;fillColor=none;fontColor=#ffffff;strokeWidth=3;" vertex="1" parent="1">
                    <mxGeometry x="247.5" y="250" width="275" height="130" as="geometry"/>
                </mxCell>
                <mxCell id="24" value="会員登録・ログインする" style="ellipse;whiteSpace=wrap;html=1;fontSize=9;" vertex="1" parent="1">
                    <mxGeometry x="260" y="200" width="80" height="40" as="geometry"/>
                </mxCell>
            </root>
        </mxGraphModel>
    </diagram>
</mxfile>